[Header]
FileType HTR
DataType HTRS
FileVersion 1
NumSegments 48
NumFrames 3
DataFrameRate 30
EulerRotationOrder ZYX
CalibrationUnits mm
RotationUnits Degrees
GlobalAxisofGravity Y
BoneLengthAxis Y
ScaleFactor 1.0
[SegmentNames&Hierarchy]
Wolf	GLOBAL
Becken	Wolf
Bauch	Becken
Bauch_001	Bauch
Brust	Bauch_001
Hals	Brust
Kopf_002	Hals
Kopf	Kopf_002
Unterkiefer	Kopf
Hals_fett	Unterkiefer
Maulunten	Unterkiefer
Mauloben	Kopf
MundW_L	Kopf
MundW_R	Kopf
Augen_con	Kopf
IK_Aug_R	Augen_con
IK_Aug_L	Augen_con
Aug_R	Kopf
aug_L	Kopf
Ohr_L	Kopf
Ohr_R	Kopf
Braun_O_L	Kopf
Braun_O_R	Kopf
aug_lied_O_L	Kopf
aug_lied_O_R	Kopf
aug_lied_U_L	Kopf
aug_lied_U_R	Kopf
Bauch_003	Brust
Schalterplatte_L	Bauch_003
Oberarm_L	Schalterplatte_L
Unterarm_L	Oberarm_L
Vorderpfote_L	Unterarm_L
Schalterplatte_R	Bauch_003
Oberarm_R	Schalterplatte_R
Unterarm_R	Oberarm_R
Vorderpfote_R	Unterarm_R
Schwanz	Becken
Schwanz_001	Schwanz
Schwanz_002	Schwanz_001
Schwanz_003	Schwanz_002
Oberschenkel_L	Becken
Unterschenkel_L	Oberschenkel_L
Pfote1_L	Unterschenkel_L
Pfote2_L	Pfote1_L
Oberschenkel_R	Becken
Unterschenkel_R	Oberschenkel_R
Pfote1_R	Unterschenkel_R
Pfote2_R	Pfote1_R
[BasePosition]
Wolf	0	0	0	0	0	0	1
Becken	0	0	0	0	0	0	1
Bauch	0	0	0	0	0	0	1
Bauch_001	0	0	0	0	0	0	1
Brust	0	0	0	0	0	0	1
Hals	0	0	0	0	0	0	1
Kopf_002	0	0	0	0	0	0	1
Kopf	0	0	0	0	0	0	1
Unterkiefer	0	0	0	0	0	0	1
Hals_fett	0	0	0	0	0	0	1
Maulunten	0	0	0	0	0	0	1
Mauloben	0	0	0	0	0	0	1
MundW_L	0	0	0	0	0	0	1
MundW_R	0	0	0	0	0	0	1
Augen_con	0	0	0	0	0	0	1
IK_Aug_R	0	0	0	0	0	0	1
IK_Aug_L	0	0	0	0	0	0	1
Aug_R	0	0	0	0	0	0	1
aug_L	0	0	0	0	0	0	1
Ohr_L	0	0	0	0	0	0	1
Ohr_R	0	0	0	0	0	0	1
Braun_O_L	0	0	0	0	0	0	1
Braun_O_R	0	0	0	0	0	0	1
aug_lied_O_L	0	0	0	0	0	0	1
aug_lied_O_R	0	0	0	0	0	0	1
aug_lied_U_L	0	0	0	0	0	0	1
aug_lied_U_R	0	0	0	0	0	0	1
Bauch_003	0	0	0	0	0	0	1
Schalterplatte_L	0	0	0	0	0	0	1
Oberarm_L	0	0	0	0	0	0	1
Unterarm_L	0	0	0	0	0	0	1
Vorderpfote_L	0	0	0	0	0	0	1
Schalterplatte_R	0	0	0	0	0	0	1
Oberarm_R	0	0	0	0	0	0	1
Unterarm_R	0	0	0	0	0	0	1
Vorderpfote_R	0	0	0	0	0	0	1
Schwanz	0	0	0	0	0	0	1
Schwanz_001	0	0	0	0	0	0	1
Schwanz_002	0	0	0	0	0	0	1
Schwanz_003	0	0	0	0	0	0	1
Oberschenkel_L	0	0	0	0	0	0	1
Unterschenkel_L	0	0	0	0	0	0	1
Pfote1_L	0	0	0	0	0	0	1
Pfote2_L	0	0	0	0	0	0	1
Oberschenkel_R	0	0	0	0	0	0	1
Unterschenkel_R	0	0	0	0	0	0	1
Pfote1_R	0	0	0	0	0	0	1
Pfote2_R	0	0	0	0	0	0	1
[Wolf]
16	0	0	0	-90	-0	0	1.0
17	0	0	0	-90	-0	0	1.0
18	0	0	0	-90	-0	0	1.0
[Becken]
16	0	0.3181299567	-0.2319097817	-2.067962885	164.4212189	89.26520538	1.0
17	0	0.3252899647	-0.2442857474	-2.067962885	164.4212189	89.26520538	1.0
18	0	0.334569484	-0.2595238388	-2.067962885	164.4212189	89.26520538	1.0
[Bauch]
16	0.9984878302	-0.00741992658	-0.150611341	-6.458931239e-07	12.60522842	-8.201818247e-08	1.0
17	0.9984878302	-0.00741992658	-0.150611341	-6.458931239e-07	12.60522842	-8.201818247e-08	1.0
18	0.9984878302	-0.00741992658	-0.150611341	-6.458931239e-07	12.60522842	-8.201818247e-08	1.0
[Bauch_001]
16	1.071342349	0.006600080058	-0.1893585622	-1.568805601e-07	2.360082865	-2.503413654e-08	1.0
17	1.071342349	0.006600080058	-0.1893585622	-1.568805601e-07	2.360082865	-2.503413654e-08	1.0
18	1.071342349	0.006600080058	-0.1893585622	-1.568805601e-07	2.360082865	-2.503413654e-08	1.0
[Brust]
16	1.41907382	-0.01381989196	0.3623858392	3.618613846e-06	10.7627573	-4.096809789e-05	1.0
17	1.41907382	-0.01381989196	0.3623858392	3.618613846e-06	10.7627573	-4.096809789e-05	1.0
18	1.41907382	-0.01381989196	0.3623858392	3.618613846e-06	10.7627573	-4.096809789e-05	1.0
[Hals]
16	1.1844244	-0.01484991144	1.02827692	-4.51789947e-06	46.87745285	-2.16624926e-06	1.0
17	1.1844244	-0.01484991144	1.02827692	-4.51789947e-06	46.87745285	-2.16624926e-06	1.0
18	1.1844244	-0.01484991144	1.02827692	-4.51789947e-06	46.87745285	-2.16624926e-06	1.0
[Kopf_002]
16	1.75259161	3.012944944e-05	0.2651725411	0.006653842982	-165.1497192	0.002556535648	1.0
17	1.75259161	3.012944944e-05	0.2651725411	0.006653842982	-165.1497192	0.002556535648	1.0
18	1.75259161	3.012944944e-05	0.2651725411	0.006653842982	-165.1497192	0.002556535648	1.0
[Kopf]
16	1.015781879	8.032657206e-08	9.111317922e-08	0.06872025877	123.2280426	-0.02605217695	1.0
17	1.015781879	8.032657206e-08	9.111317922e-08	0.06872025877	123.2280426	-0.02605217695	1.0
18	1.015781879	8.032657206e-08	9.111317922e-08	0.06872025877	123.2280426	-0.02605217695	1.0
[Unterkiefer]
16	0.6370437145	0.004552738741	0.4060620368	5.412721157	-68.3888092	-3.09354353	1.0
17	0.6370437145	0.004552738741	0.4060620368	5.412721157	-68.3888092	-3.09354353	1.0
18	0.6370437145	0.004552738741	0.4060620368	5.412721157	-68.3888092	-3.09354353	1.0
[Hals_fett]
16	0.2998299599	0.007747137919	0.1206380203	-5.071650982	-59.35961533	5.585566998	1.0
17	0.2998299599	0.007747137919	0.1206380203	-5.071650982	-59.35961533	5.585566998	1.0
18	0.2998299599	0.007747137919	0.1206380203	-5.071650982	-59.35961533	5.585566998	1.0
[Maulunten]
16	0.08317943662	-0.007747350261	-0.1206459776	-3.32220912	38.97271347	-0.871876061	1.0
17	0.08317943662	-0.007747350261	-0.1206459776	-3.32220912	38.97271347	-0.871876061	1.0
18	0.08317943662	-0.007747350261	-0.1206459776	-3.32220912	38.97271347	-0.871876061	1.0
[Mauloben]
16	0.910148263	0.0004056794569	0.4003701806	-0.1032674983	-28.77768707	0.03543139994	1.0
17	0.910148263	0.0004056794569	0.4003701806	-0.1032674983	-28.77768707	0.03543139994	1.0
18	0.910148263	0.0004056794569	0.4003701806	-0.1032674983	-28.77768707	0.03543139994	1.0
[MundW_L]
16	0.673060894	-0.3618556261	0.3751286268	-179.8370972	-17.94884872	24.71397209	1.0
17	0.673060894	-0.3618556261	0.3751286268	-179.8370972	-17.94884872	24.71397209	1.0
18	0.673060894	-0.3618556261	0.3751286268	-179.8370972	-17.94884872	24.71397209	1.0
[MundW_R]
16	0.6732318401	0.3627035022	0.37398085	179.6653442	-18.02427101	-24.69083977	1.0
17	0.6732318401	0.3627035022	0.37398085	179.6653442	-18.02427101	-24.69083977	1.0
18	0.6732318401	0.3627035022	0.37398085	179.6653442	-18.02427101	-24.69083977	1.0
[Augen_con]
16	1.807372689	-0.0001604028512	0.1835819334	0.09822253883	157.1545258	0.02385936864	1.0
17	1.807372689	-0.0001604028512	0.1835819334	0.09822253883	157.1545258	0.02385936864	1.0
18	1.807372689	-0.0001604028512	0.1835819334	0.09822253883	157.1545258	0.02385936864	1.0
[IK_Aug_R]
16	0.3461304307	0.2943200469	-8.032657206e-08	-0.4194762409	-4.963055134	165.6946411	1.0
17	0.3461304307	0.2943200469	-8.032657206e-08	-0.4194762409	-4.963055134	165.6946411	1.0
18	0.3461304307	0.2943200469	-8.032657206e-08	-0.4194762409	-4.963055134	165.6946411	1.0
[IK_Aug_L]
16	0.3461307883	-0.2943199575	-1.629814861e-08	0.4194769561	-4.963055134	-165.6946411	1.0
17	0.3461307883	-0.2943199575	-1.629814861e-08	0.4194769561	-4.963055134	-165.6946411	1.0
18	0.3461307883	-0.2943199575	-1.629814861e-08	0.4194769561	-4.963055134	-165.6946411	1.0
[Aug_R]
16	1.0351547	0.2207805812	-0.09605748951	176.004776	-17.29163933	12.85548019	1.0
17	1.0351547	0.2207805812	-0.09605748951	176.004776	-17.29163933	12.85548019	1.0
18	1.0351547	0.2207805812	-0.09605748951	176.004776	-17.29163933	12.85548019	1.0
[aug_L]
16	1.035044074	-0.2215988934	-0.09535883367	-176.1891022	-17.33178139	-12.83103275	1.0
17	1.035044074	-0.2215988934	-0.09535883367	-176.1891022	-17.33178139	-12.83103275	1.0
18	1.035044074	-0.2215988934	-0.09535883367	-176.1891022	-17.33178139	-12.83103275	1.0
[Ohr_L]
16	0.6407760978	-0.3659991622	-0.6893320084	-24.34924507	53.07766342	-15.02013397	1.0
17	0.6407760978	-0.3659991622	-0.6893320084	-24.34924507	53.07766342	-15.02013397	1.0
18	0.6407760978	-0.3659991622	-0.6893320084	-24.34924507	53.07766342	-15.02013397	1.0
[Ohr_R]
16	0.6409583092	0.3634999394	-0.6904845238	24.05786133	53.12416077	14.75857162	1.0
17	0.6409583092	0.3634999394	-0.6904845238	24.05786133	53.12416077	14.75857162	1.0
18	0.6409583092	0.3634999394	-0.6904845238	24.05786133	53.12416077	14.75857162	1.0
[Braun_O_L]
16	0.9801794291	-0.3706048727	-0.3292538524	-143.3172302	-34.69635391	52.39493942	1.0
17	0.9801794291	-0.3706048727	-0.3292538524	-143.3172302	-34.69635391	52.39493942	1.0
18	0.9801794291	-0.3706048727	-0.3292538524	-143.3172302	-34.69635391	52.39493942	1.0
[Braun_O_R]
16	0.9803634882	0.3690741956	-0.3304223716	143.1826782	-34.83971786	-52.3467598	1.0
17	0.9803634882	0.3690741956	-0.3304223716	143.1826782	-34.83971786	-52.3467598	1.0
18	0.9803634882	0.3690741956	-0.3304223716	143.1826782	-34.83971786	-52.3467598	1.0
[aug_lied_O_L]
16	1.038881421	-0.3271433711	-0.1608108282	-175.8613434	-20.15596199	60.31666946	1.0
17	1.038881421	-0.3271433711	-0.1608108282	-175.8613434	-20.15596199	60.31666946	1.0
18	1.038881421	-0.3271433711	-0.1608108282	-175.8613434	-20.15596199	60.31666946	1.0
[aug_lied_O_R]
16	1.039044261	0.3261157274	-0.1618429124	175.7657928	-20.31323814	-60.31218338	1.0
17	1.039044261	0.3261157274	-0.1618429124	175.7657928	-20.31323814	-60.31218338	1.0
18	1.039044261	0.3261157274	-0.1618429124	175.7657928	-20.31323814	-60.31218338	1.0
[aug_lied_U_L]
16	1.021915555	-0.3312865496	-0.1338484734	-159.8099365	-28.7482872	60.17461395	1.0
17	1.021915555	-0.3312865496	-0.1338484734	-159.8099365	-28.7482872	60.17461395	1.0
18	1.021915555	-0.3312865496	-0.1338484734	-159.8099365	-28.7482872	60.17461395	1.0
[aug_lied_U_R]
16	1.02207756	0.3303526342	-0.1348843277	159.7071381	-28.90532684	-60.15359116	1.0
17	1.02207756	0.3303526342	-0.1348843277	159.7071381	-28.90532684	-60.15359116	1.0
18	1.02207756	0.3303526342	-0.1348843277	159.7071381	-28.90532684	-60.15359116	1.0
[Bauch_003]
16	1.444672227	0.03385011479	-1.56629622	-3.870021374e-06	-137.6799469	1.039222207e-05	1.0
17	1.444672227	0.03385011479	-1.56629622	-3.870021374e-06	-137.6799469	1.039222207e-05	1.0
18	1.444672227	0.03385011479	-1.56629622	-3.870021374e-06	-137.6799469	1.039222207e-05	1.0
[Schalterplatte_L]
16	0.9077023864	-0.3851399422	0.0319544524	-17.34389687	72.49716949	-46.46363068	1.0
17	0.9271121621	-0.3878759742	0.05047597364	-16.14056396	72.11643219	-45.29058838	1.0
18	0.9518691301	-0.3906119466	0.07107301801	-15.21475315	71.79592133	-44.40358353	1.0
[Oberarm_L]
16	1.418636918	9.313225746e-08	1.303851604e-07	-81.55555725	-65.52404022	96.91629028	1.0
17	1.418636918	9.313225746e-08	1.303851604e-07	-83.24147797	-65.59827423	98.82435608	1.0
18	1.418636918	9.313225746e-08	1.303851604e-07	-85.13766479	-65.65342712	100.9917603	1.0
[Unterarm_L]
16	2.028227806	1.885928214e-07	1.862644972e-08	5.371612072	58.23095703	5.62712431	1.0
17	2.028227806	1.885928214e-07	1.862644972e-08	5.454437733	58.04795074	5.728212357	1.0
18	2.028227806	1.885928214e-07	1.862644972e-08	5.620753765	58.05229568	5.915510178	1.0
[Vorderpfote_L]
16	1.705947399	2.607703209e-07	2.305023372e-07	-1.20385313	94.30198669	-0.2800609767	1.0
17	1.705947399	2.607703209e-07	2.305023372e-07	-1.411146879	94.41900635	-0.4870390892	1.0
18	1.705947399	2.607703209e-07	2.305023372e-07	-1.685943604	94.6340332	-0.7618957758	1.0
[Schalterplatte_R]
16	0.9071987271	0.3821840286	-0.02714486048	123.930191	70.75333405	159.4030914	1.0
17	0.9165472388	0.3822255731	-0.04023256153	124.6971588	70.4522934	159.9187775	1.0
18	0.9274073839	0.3822672069	-0.05332026631	125.3239822	70.24802399	160.2613525	1.0
[Oberarm_R]
16	1.418636441	2.235174179e-07	1.490116119e-07	122.2640305	-49.31220627	-149.9354553	1.0
17	1.418636441	2.235174179e-07	1.490116119e-07	119.9252548	-51.03611755	-146.4941711	1.0
18	1.418636441	2.235174179e-07	1.490116119e-07	117.2202148	-52.75023651	-142.6368103	1.0
[Unterarm_R]
16	2.028232098	1.350417733e-07	-7.450580597e-08	-49.84085464	82.1115799	-51.53255463	1.0
17	2.028232098	1.350417733e-07	-7.450580597e-08	-58.01470947	83.39796448	-59.32563782	1.0
18	2.028232098	1.350417733e-07	-7.450580597e-08	-63.62382507	84.29195404	-64.61502838	1.0
[Vorderpfote_R]
16	1.705937624	9.313230187e-09	7.101335342e-08	-7.897510529	-13.72340298	8.171835899	1.0
17	1.705937624	9.313230187e-09	7.101335342e-08	-7.655687809	-13.33201313	8.639260292	1.0
18	1.705937624	9.313230187e-09	7.101335342e-08	-7.374998093	-13.00182533	8.920901299	1.0
[Schwanz]
16	-0.09526655823	-1.338776023e-08	0.06363325566	0.02347569168	-121.4808578	-0.06356838346	1.0
17	-0.1026309952	-1.338776023e-08	0.06696671247	0.04507210106	-121.9205551	-0.1244129241	1.0
18	-0.1121753305	-1.338776023e-08	0.07211707532	0.07007220387	-122.4618912	-0.1978539526	1.0
[Schwanz_001]
16	0.9104326963	6.926712359e-08	1.564329999e-09	-0.6542396545	-7.830063343	0.6132694483	1.0
17	0.9104326963	6.926712359e-08	1.564329999e-09	-0.6423779726	-8.338095665	0.5988094807	1.0
18	0.9104326963	6.926712359e-08	1.564329999e-09	-0.6275675893	-8.96355629	0.5808283091	1.0
[Schwanz_002]
16	0.7855662704	6.053597446e-08	1.369335223e-07	-0.3677590191	-14.7092104	0.2839519978	1.0
17	0.7855662704	6.053597446e-08	1.369335223e-07	-0.3318851888	-14.42355156	0.2559162378	1.0
18	0.7855662704	6.053597446e-08	1.369335223e-07	-0.2879914939	-14.07187366	0.2217146754	1.0
[Schwanz_003]
16	0.8350353241	6.286426668e-08	8.163624443e-08	0.3519915938	8.455366135	-0.2582532465	1.0
17	0.8350353241	6.286426668e-08	8.163624443e-08	0.2689037025	5.020451069	-0.1754126251	1.0
18	0.8350353241	6.286426668e-08	8.163624443e-08	0.1589175165	0.7622890472	-0.06570968777	1.0
[Oberschenkel_L]
16	0.6867173314	-0.5837000012	-0.09911739826	10.75597191	-34.63538742	-3.925547123	1.0
17	0.6726617813	-0.5837000012	-0.08001510054	10.54691792	-31.61962318	-3.539337158	1.0
18	0.6554061174	-0.5837000012	-0.056362845	10.38568687	-28.99645996	-3.220269203	1.0
[Unterschenkel_L]
16	1.686439037	1.225719046e-07	1.432802987e-09	-152.1460724	-56.57489014	163.8883514	1.0
17	1.686439037	1.221480375e-07	1.528323246e-09	-152.1951141	-56.84170532	163.6812897	1.0
18	1.686439037	1.217241561e-07	1.623843504e-09	-151.9347534	-57.68272018	162.9926758	1.0
[Pfote1_L]
16	1.190900326	1.389819886e-07	-1.438177009e-07	0.7518121004	50.37546158	-8.17062664	1.0
17	1.190900326	1.395551124e-07	-1.423848914e-07	0.6366109252	51.23544312	-8.319031715	1.0
18	1.190900326	1.401282361e-07	-1.40952082e-07	0.5090680122	52.14148331	-8.481389046	1.0
[Pfote2_L]
16	0.9876255989	1.457877943e-07	-8.740103397e-08	39.73159409	106.8148651	32.19987106	1.0
17	0.9876255989	1.440206745e-07	-8.577720223e-08	43.39763641	105.4734344	36.17186356	1.0
18	0.9876255989	1.422535547e-07	-8.415334918e-08	47.8971138	103.9803467	41.06947708	1.0
[Oberschenkel_R]
16	0.5141009092	0.5837000608	0.1208601445	-14.95716	-60.34819794	9.479744911	1.0
17	0.502543807	0.5837000608	0.1232067421	-15.62339878	-62.22531128	10.23754025	1.0
18	0.4909867346	0.5837000608	0.1255533397	-16.36917305	-64.05735779	11.07222557	1.0
[Unterschenkel_R]
16	1.686449051	1.11758709e-07	3.725289943e-08	-94.54862213	-104.2086105	80.44256592	1.0
17	1.686449051	1.11758709e-07	3.725289943e-08	-96.50603485	-104.3363113	82.50224304	1.0
18	1.686449051	1.11758709e-07	3.725289943e-08	-98.68582153	-104.5262222	84.82244873	1.0
[Pfote1_R]
16	1.190900326	2.176966518e-07	1.11758709e-07	-5.023275852	61.22656631	2.286400795	1.0
17	1.190900326	2.176966518e-07	1.11758709e-07	-4.423037052	57.94006348	2.984948874	1.0
18	1.190900326	2.176966518e-07	1.11758709e-07	-3.850544691	53.98687363	3.677883387	1.0
[Pfote2_R]
16	0.9876256585	1.024454832e-07	-4.656610209e-09	-22.33037376	102.2123489	-10.66532516	1.0
17	0.9876256585	1.024454832e-07	-4.656610209e-09	-21.54943085	102.9939728	-10.15095425	1.0
18	0.9876256585	1.024454832e-07	-4.656610209e-09	-21.46656036	103.4182205	-10.40318775	1.0
[EndOfFile]
